<svg width="72" height="71" viewBox="0 0 72 71" fill="none" xmlns="http://www.w3.org/2000/svg">
<rect x="0.390323" y="0.390323" width="70.2581" height="70.2194" fill="white"/>
<rect width="64.0129" height="39.0323" transform="translate(3.90326 16.3936)" fill="white"/>
<g clip-path="url(#clip0_1402_984)">
<path d="M28.2691 40.8441C28.0157 41.435 27.7022 41.9984 27.3335 42.5251C26.8438 43.2268 26.4418 43.7091 26.1349 43.9796C25.6525 44.4181 25.1409 44.6447 24.5927 44.6593C24.198 44.6593 23.7229 44.5497 23.1675 44.3158C22.6824 44.1054 22.1611 43.9912 21.6326 43.9796C21.0897 43.9894 20.5537 44.1035 20.0539 44.3158C19.4911 44.5424 19.0379 44.6593 18.6871 44.6739C18.1609 44.6958 17.6346 44.462 17.1084 43.9723C16.7722 43.6799 16.3556 43.1756 15.8513 42.4666C15.2857 41.6542 14.8379 40.7659 14.521 39.8281C14.1483 38.7464 13.9583 37.7012 13.9583 36.6853C13.9583 35.5232 14.2068 34.5219 14.7111 33.6813C15.0926 33.0222 15.636 32.4713 16.2898 32.0807C16.9344 31.6919 17.6712 31.4824 18.424 31.4741C18.8406 31.4741 19.3961 31.6056 20.0758 31.8614C20.7555 32.1172 21.1941 32.2488 21.3841 32.2488C21.5303 32.2488 22.0126 32.0953 22.8386 31.7957C23.6182 31.5179 24.276 31.401 24.812 31.4448C26.2737 31.5618 27.3701 32.1392 28.101 33.177C26.7927 33.9664 26.1495 35.0773 26.1641 36.4953C26.1787 37.6062 26.5807 38.5271 27.3701 39.258C27.7209 39.5886 28.1264 39.8557 28.5687 40.0474C28.481 40.3251 28.3787 40.5882 28.2691 40.8441ZM24.9216 27.6734C24.9216 28.5432 24.6073 29.3545 23.9714 30.1C23.2113 30.9917 22.2831 31.5033 21.2891 31.4229C21.274 31.3139 21.2667 31.204 21.2671 31.094C21.2671 30.2608 21.6326 29.3691 22.2758 28.6382C22.6175 28.2502 23.0355 27.9367 23.5037 27.7173C23.9402 27.4928 24.4174 27.3586 24.907 27.3226C24.9143 27.4396 24.9216 27.5565 24.9216 27.6734Z" fill="#272727"/>
<path d="M38.1582 36.3929C38.5188 36.3929 38.8331 36.3491 39.101 36.2614C39.369 36.1688 39.5907 36.0397 39.7662 35.874C39.9464 35.7035 40.0804 35.4988 40.1681 35.2601C40.2559 35.0164 40.2997 34.746 40.2997 34.4488C40.2997 34.1662 40.2559 33.9104 40.1681 33.6813C40.0804 33.4523 39.9489 33.2574 39.7735 33.0966C39.5981 32.9358 39.3763 32.814 39.1084 32.7312C38.8404 32.6435 38.5236 32.5996 38.1582 32.5996H36.6891V36.3929H38.1582ZM38.1582 31.0794C38.8647 31.0794 39.4762 31.1622 39.9927 31.3279C40.5092 31.4935 40.9356 31.725 41.2718 32.0222C41.608 32.3195 41.8565 32.6752 42.0173 33.0893C42.183 33.5035 42.2658 33.9566 42.2658 34.4488C42.2658 34.9604 42.1805 35.4306 42.01 35.8594C41.8394 36.2833 41.5836 36.6487 41.2426 36.9557C40.9015 37.2627 40.4727 37.5015 39.9562 37.672C39.4446 37.8425 38.8452 37.9278 38.1582 37.9278H36.6891V41.648H34.723V31.0794H38.1582Z" fill="#272727"/>
<path d="M47.5138 38.4467C46.9924 38.4711 46.5539 38.5174 46.1982 38.5856C45.8425 38.6489 45.5575 38.7318 45.3431 38.8341C45.1287 38.9364 44.9752 39.0558 44.8826 39.1922C44.79 39.3287 44.7437 39.4773 44.7437 39.6381C44.7437 39.9548 44.8363 40.1814 45.0215 40.3178C45.2115 40.4542 45.4576 40.5225 45.7597 40.5225C46.13 40.5225 46.4491 40.4567 46.7171 40.3251C46.99 40.1887 47.2556 39.984 47.5138 39.7112V38.4467ZM43.377 35.1943C44.2394 34.4049 45.2773 34.0102 46.4906 34.0102C46.9291 34.0102 47.3213 34.0833 47.6673 34.2295C48.0132 34.3708 48.3056 34.5706 48.5444 34.8288C48.7831 35.0822 48.9634 35.3867 49.0852 35.7424C49.2119 36.0981 49.2752 36.488 49.2752 36.9119V41.648H48.4567C48.2861 41.648 48.1546 41.6237 48.062 41.5749C47.9694 41.5213 47.8963 41.4166 47.8427 41.2607L47.6819 40.7198C47.4919 40.8903 47.3067 41.0414 47.1264 41.173C46.9461 41.2996 46.7586 41.4068 46.5636 41.4945C46.3687 41.5822 46.1592 41.648 45.9351 41.6919C45.7158 41.7406 45.4722 41.765 45.2042 41.765C44.8875 41.765 44.5951 41.7236 44.3271 41.6407C44.0591 41.553 43.8277 41.4239 43.6328 41.2534C43.4379 41.0828 43.2868 40.8709 43.1796 40.6175C43.0724 40.3641 43.0188 40.0693 43.0188 39.7331C43.0188 39.5431 43.0505 39.3555 43.1139 39.1703C43.1772 38.9803 43.2795 38.8 43.4208 38.6295C43.567 38.4589 43.7546 38.2981 43.9836 38.1471C44.2126 37.996 44.4928 37.8645 44.8241 37.7524C45.1603 37.6403 45.5501 37.5502 45.9936 37.482C46.437 37.4089 46.9437 37.365 47.5138 37.3504V36.9119C47.5138 36.41 47.4066 36.0397 47.1922 35.8009C46.9778 35.5573 46.6684 35.4355 46.264 35.4355C45.9716 35.4355 45.728 35.4696 45.5331 35.5378C45.3431 35.606 45.175 35.684 45.0288 35.7717C44.8826 35.8545 44.7486 35.93 44.6268 35.9983C44.5099 36.0665 44.3783 36.1006 44.2321 36.1006C44.1054 36.1006 43.9982 36.0689 43.9105 36.0056C43.8228 35.9374 43.7522 35.8594 43.6986 35.7717L43.377 35.1943Z" fill="#272727"/>
<path d="M57.8656 34.1491L53.7799 43.7091C53.7263 43.8358 53.6557 43.9308 53.568 43.9942C53.4851 44.0624 53.356 44.0965 53.1806 44.0965H51.8358L53.2391 41.0852L50.2059 34.1491H51.7919C51.9332 34.1491 52.0428 34.1832 52.1208 34.2514C52.2036 34.3197 52.2645 34.3976 52.3035 34.4853L53.8969 38.3736C53.9505 38.5052 53.9943 38.6368 54.0284 38.7683C54.0674 38.8999 54.1039 39.0339 54.1381 39.1703C54.1819 39.0339 54.2258 38.8999 54.2696 38.7683C54.3135 38.6319 54.3622 38.4979 54.4158 38.3663L55.9214 34.4853C55.9604 34.3879 56.0237 34.3075 56.1115 34.2441C56.204 34.1808 56.3064 34.1491 56.4184 34.1491H57.8656Z" fill="#272727"/>
</g>
<rect x="0.390323" y="0.390323" width="70.2581" height="70.2194" stroke="#D3D3D3" stroke-width="0.780645"/>
<defs>
<clipPath id="clip0_1402_984">
<rect width="43.7161" height="17.1742" fill="white" transform="translate(13.9583 27.3226)"/>
</clipPath>
</defs>
</svg>
