<svg width="72" height="71" viewBox="0 0 72 71" fill="none" xmlns="http://www.w3.org/2000/svg">
<rect x="0.390323" y="0.390323" width="70.2581" height="70.2194" fill="white"/>
<rect width="64.0129" height="39.0323" transform="translate(3.90308 16.3936)" fill="white"/>
<g clip-path="url(#clip0_1402_970)">
<path d="M36.9396 33.2611C36.9111 35.5085 38.9424 36.7627 40.4727 37.5083C42.045 38.2734 42.5731 38.764 42.5671 39.4481C42.555 40.4953 41.3128 40.9574 40.1502 40.9754C38.1218 41.0069 36.9426 40.4278 36.005 39.9897L35.2743 43.4088C36.215 43.8423 37.9568 44.2204 39.7631 44.2369C44.0028 44.2369 46.7768 42.1441 46.7918 38.899C46.8083 34.7808 41.0953 34.5528 41.1343 32.712C41.1478 32.1539 41.6804 31.5583 42.8476 31.4068C43.4252 31.3303 45.02 31.2718 46.8278 32.1044L47.5374 28.7963C46.5652 28.4423 45.3155 28.1032 43.7598 28.1032C39.7691 28.1032 36.9621 30.2246 36.9396 33.2611ZM54.356 28.3883C53.5819 28.3883 52.9293 28.8399 52.6382 29.533L46.5817 43.9939H50.8184L51.6616 41.664H56.8389L57.328 43.9939H61.0621L57.8036 28.3883H54.356ZM54.9486 32.604L56.1713 38.464H52.8228L54.9486 32.604ZM31.8028 28.3883L28.4632 43.9939H32.5004L35.8384 28.3883H31.8028ZM25.8303 28.3883L21.6281 39.01L19.9283 29.9785C19.7288 28.9704 18.9411 28.3883 18.0665 28.3883H11.1968L11.1008 28.8414C12.5111 29.1474 14.1133 29.641 15.084 30.1691C15.6781 30.4916 15.8476 30.7737 16.0427 31.5403L19.2622 43.9939H23.5289L30.07 28.3883H25.8303Z" fill="url(#paint0_linear_1402_970)"/>
</g>
<rect x="0.390323" y="0.390323" width="70.2581" height="70.2194" stroke="#D3D3D3" stroke-width="0.780645"/>
<defs>
<linearGradient id="paint0_linear_1402_970" x1="34.0701" y1="44.5606" x2="34.5371" y2="27.991" gradientUnits="userSpaceOnUse">
<stop stop-color="#222357"/>
<stop offset="1" stop-color="#254AA5"/>
</linearGradient>
<clipPath id="clip0_1402_970">
<rect width="49.9613" height="16.1984" fill="white" transform="translate(11.1008 28.1032)"/>
</clipPath>
</defs>
</svg>
