<svg width="27" height="20" viewBox="0 0 27 20" fill="none" xmlns="http://www.w3.org/2000/svg">
<path d="M24.4061 0.625H1.90613C1.40885 0.625 0.931933 0.822544 0.580303 1.17417C0.228672 1.52581 0.0311279 2.00272 0.0311279 2.5V17.5C0.0311279 17.9973 0.228672 18.4742 0.580303 18.8258C0.931933 19.1775 1.40885 19.375 1.90613 19.375H24.4061C24.9034 19.375 25.3803 19.1775 25.732 18.8258C26.0836 18.4742 26.2811 17.9973 26.2811 17.5V2.5C26.2811 2.00272 26.0836 1.52581 25.732 1.17417C25.3803 0.822544 24.9034 0.625 24.4061 0.625ZM22.3436 2.5L13.1561 8.85625L3.96863 2.5H22.3436ZM1.90613 17.5V3.35312L12.6218 10.7687C12.7787 10.8776 12.9651 10.936 13.1561 10.936C13.3471 10.936 13.5336 10.8776 13.6905 10.7687L24.4061 3.35312V17.5H1.90613Z" fill="white"/>
</svg>
