<svg width="24" height="28" viewBox="0 0 24 28" fill="none" xmlns="http://www.w3.org/2000/svg">
<path d="M17.8333 9.00016V6.54183C17.8333 5.77578 17.6824 5.01724 17.3893 4.30951C17.0961 3.60178 16.6664 2.95871 16.1248 2.41704C15.5831 1.87536 14.94 1.44568 14.2323 1.15253C13.5246 0.85938 12.766 0.708496 12 0.708496C11.2339 0.708496 10.4754 0.85938 9.76766 1.15253C9.05993 1.44568 8.41687 1.87536 7.87519 2.41704C7.33352 2.95871 6.90383 3.60178 6.61068 4.30951C6.31753 5.01724 6.16665 5.77578 6.16665 6.54183V12.3752C6.16665 12.5962 6.25444 12.8081 6.41072 12.9644C6.567 13.1207 6.77897 13.2085 6.99998 13.2085C7.22099 13.2085 7.43295 13.1207 7.58923 12.9644C7.74552 12.8081 7.83331 12.5962 7.83331 12.3752V10.6668H14.5V9.00016H7.83331V6.54183C7.83331 5.43676 8.2723 4.37695 9.0537 3.59555C9.8351 2.81415 10.8949 2.37516 12 2.37516C13.105 2.37516 14.1649 2.81415 14.9463 3.59555C15.7277 4.37695 16.1666 5.43676 16.1666 6.54183V12.3335C16.1666 12.5545 16.2544 12.7665 16.4107 12.9228C16.567 13.079 16.779 13.1668 17 13.1668C17.221 13.1668 17.433 13.079 17.5892 12.9228C17.7455 12.7665 17.8333 12.5545 17.8333 12.3335V10.6668H22V25.6668H1.99998V10.6668H4.49998V9.00016H0.333313V25.7418C0.333313 26.164 0.501006 26.5688 0.799501 26.8673C1.098 27.1658 1.50284 27.3335 1.92498 27.3335H22.075C22.4971 27.3335 22.902 27.1658 23.2005 26.8673C23.499 26.5688 23.6666 26.164 23.6666 25.7418V9.00016H17.8333Z" fill="#545454"/>
</svg>
