<svg width="30" height="30" viewBox="0 0 30 30" fill="none" xmlns="http://www.w3.org/2000/svg">
<path fill-rule="evenodd" clip-rule="evenodd" d="M9.83342 0H20.8334C25.8952 0 30.0001 4.10483 30.0001 9.16667V20.1667C30.0001 25.2285 25.8952 29.3333 20.8334 29.3333H9.83342C4.77158 29.3333 0.666748 25.2285 0.666748 20.1667V9.16667C0.666748 4.10483 4.77158 0 9.83342 0ZM20.8334 26.5833C24.3717 26.5833 27.2501 23.705 27.2501 20.1667V9.16667C27.2501 5.62833 24.3717 2.75 20.8334 2.75H9.83342C6.29508 2.75 3.41675 5.62833 3.41675 9.16667V20.1667C3.41675 23.705 6.29508 26.5833 9.83342 26.5833H20.8334Z" fill="white"/>
<path fill-rule="evenodd" clip-rule="evenodd" d="M8.00012 14.667C8.00012 10.6172 11.2836 7.33368 15.3335 7.33368C19.3833 7.33368 22.6668 10.6172 22.6668 14.667C22.6668 18.7168 19.3833 22.0003 15.3335 22.0003C11.2836 22.0003 8.00012 18.7168 8.00012 14.667ZM10.7501 14.667C10.7501 17.1933 12.8071 19.2503 15.3335 19.2503C17.8598 19.2503 19.9168 17.1933 19.9168 14.667C19.9168 12.1388 17.8598 10.0837 15.3335 10.0837C12.8071 10.0837 10.7501 12.1388 10.7501 14.667Z" fill="white"/>
<circle cx="23.2167" cy="6.78332" r="0.977167" fill="white"/>
</svg>
