<svg width="10" height="16" viewBox="0 0 10 16" fill="none" xmlns="http://www.w3.org/2000/svg">
<path d="M1.17928 8.4524C1.00389 8.27724 0.905248 8.03959 0.905029 7.79171V7.318C0.907901 7.07066 1.00615 6.83397 1.17928 6.6573L7.5868 0.262252C7.70383 0.144253 7.86315 0.0778809 8.02934 0.0778809C8.19554 0.0778809 8.35485 0.144253 8.47188 0.262252L9.35697 1.14734C9.47423 1.26223 9.54031 1.41948 9.54031 1.58365C9.54031 1.74781 9.47423 1.90506 9.35697 2.01996L3.8096 7.55485L9.35697 13.0898C9.47497 13.2068 9.54134 13.3661 9.54134 13.5323C9.54134 13.6985 9.47497 13.8578 9.35697 13.9748L8.47188 14.8475C8.35485 14.9655 8.19554 15.0318 8.02934 15.0318C7.86315 15.0318 7.70383 14.9655 7.5868 14.8475L1.17928 8.4524Z" fill="#BCBCBC"/>
</svg>
