<svg width="38" height="38" viewBox="0 0 38 38" fill="none" xmlns="http://www.w3.org/2000/svg">
<path fill-rule="evenodd" clip-rule="evenodd" d="M19.0001 0.666656C8.87508 0.666656 0.666748 8.87499 0.666748 19C0.666748 29.125 8.87508 37.3333 19.0001 37.3333C29.1251 37.3333 37.3334 29.125 37.3334 19C37.3334 8.87499 29.1251 0.666656 19.0001 0.666656ZM26.9467 15.9C27.0931 15.7327 27.2045 15.5379 27.2744 15.3269C27.3443 15.116 27.3713 14.8932 27.3539 14.6716C27.3364 14.4501 27.2748 14.2343 27.1727 14.0369C27.0706 13.8395 26.9301 13.6645 26.7593 13.5222C26.5886 13.38 26.3911 13.2733 26.1786 13.2084C25.966 13.1436 25.7426 13.1219 25.5216 13.1447C25.3005 13.1675 25.0862 13.2342 24.8913 13.341C24.6964 13.4479 24.5249 13.5926 24.3867 13.7667L17.2201 22.365L13.5117 18.655C13.1974 18.3514 12.7764 18.1834 12.3394 18.1872C11.9024 18.191 11.4844 18.3663 11.1754 18.6753C10.8664 18.9843 10.6911 19.4023 10.6873 19.8393C10.6835 20.2763 10.8515 20.6973 11.1551 21.0117L16.1551 26.0117C16.3188 26.1753 16.5149 26.3031 16.7308 26.3868C16.9466 26.4704 17.1776 26.5082 17.4089 26.4977C17.6401 26.4872 17.8667 26.4287 18.0741 26.3257C18.2815 26.2228 18.4652 26.0778 18.6134 25.9L26.9467 15.9Z" fill="#545454"/>
</svg>
