<?xml version="1.0" encoding="utf-8"?><svg viewBox="0 0 26 28" xmlns="http://www.w3.org/2000/svg" xmlns:xlink="http://www.w3.org/1999/xlink"><style>:root>svg{display:none}:root>svg:target{display:block}</style><svg viewBox="0 0 24 28" id="cart" xmlns="http://www.w3.org/2000/svg"><path d="M17.833 9V6.542a5.834 5.834 0 00-11.666 0v5.833a.833.833 0 001.666 0v-1.708H14.5V9H7.833V6.542a4.167 4.167 0 018.334 0v5.792a.833.833 0 001.666 0v-1.667H22v15H2v-15h2.5V9H.333v16.742a1.592 1.592 0 001.592 1.591h20.15a1.592 1.592 0 001.592-1.591V9h-5.834z"/></svg><svg viewBox="0 0 26 26" id="search" xmlns="http://www.w3.org/2000/svg"><path d="M11.75 21.75c5.523 0 10-4.477 10-10s-4.477-10-10-10-10 4.477-10 10 4.477 10 10 10zm12.5 2.5l-5.438-5.438"/></svg></svg>