<?xml version="1.0" encoding="utf-8"?><svg viewBox="0 0 124 130" xmlns="http://www.w3.org/2000/svg" xmlns:xlink="http://www.w3.org/1999/xlink"><style>:root>svg{display:none}:root>svg:target{display:block}</style><svg viewBox="0 0 24 28" id="cart" xmlns="http://www.w3.org/2000/svg"><path d="M17.833 9V6.542a5.834 5.834 0 00-11.666 0v5.833a.833.833 0 001.666 0v-1.708H14.5V9H7.833V6.542a4.167 4.167 0 018.334 0v5.792a.833.833 0 001.666 0v-1.667H22v15H2v-15h2.5V9H.333v16.742a1.592 1.592 0 001.592 1.591h20.15a1.592 1.592 0 001.592-1.591V9h-5.834z"/></svg><svg viewBox="0 0 124 130" id="craft" xmlns="http://www.w3.org/2000/svg"><path fill-rule="evenodd" clip-rule="evenodd" d="M73.425.351c-3.377.92-5.343 2.656-7.609 6.722-1.536 2.757-1.617 2.852-2.14 2.512-5.038-3.278-9.044-5.597-9.67-5.597-1.02-.001-2.03 1.171-1.8 2.088.091.364.28.798.418.966.14.167 2.304 1.581 4.81 3.142 2.508 1.561 4.619 2.935 4.692 3.053.073.118-13.841 25.295-30.92 55.948C-2.532 129.736-.72 126.256.526 128.07c.985 1.434 1.855 1.929 3.39 1.929.982 0 1.56-.148 2.079-.531.825-.611 70.39-100.3 70.644-101.236.368-1.356-1.242-2.706-2.527-2.12-.381.173-13.43 18.688-35.229 49.984-19.043 27.34-34.683 49.71-34.756 49.71-.072 0 .15-.487.495-1.08.344-.594 15.237-27.327 33.096-59.407 20.104-36.113 32.82-58.697 33.39-59.3 1.475-1.564 2.647-2.063 4.858-2.069 1.533-.004 2.148.118 3.137.623 3.452 1.761 4.698 5.7 2.963 9.369-.906 1.914-.918 2.062-.236 2.929.582.74 1.868.916 2.562.352 1.372-1.116 2.35-4.302 2.2-7.168-.348-6.623-6.86-11.422-13.167-9.705zm-.192 11.536c-.276.244-1.719 2.403-3.205 4.797-2.88 4.638-3.166 5.477-2.194 6.448.546.546 1.53.66 2.27.263.253-.135.903-.992 1.445-1.906.543-.914 1.104-1.633 1.248-1.597.81.198 8.984 5.537 9.94 6.493 2.932 2.932 3.835 7.374 2.282 11.234-.31.768-5.163 8.766-10.786 17.77C62.665 73.916 62.867 73.514 62.9 78.029c.017 2.206.132 2.965.666 4.381 1.428 3.79 3.671 6.398 7.016 8.156 4.085 2.147 8.62 2.197 12.944.144 3.098-1.471 4.818-3.533 10.3-12.347 5.08-8.168 5.955-9.244 8.471-10.41 2.62-1.215 5.655-1.35 8.233-.364.629.24 3.275 1.773 5.879 3.405 2.966 1.86 4.988 2.968 5.412 2.968.734 0 1.924-1.007 1.924-1.628 0-1.057-.768-1.726-5.102-4.442-2.504-1.568-5.172-3.135-5.93-3.482-1.534-.703-4.342-1.365-5.815-1.372-1.729-.008-4.808.779-6.619 1.69-3.125 1.575-4.561 3.293-9.842 11.776-2.567 4.123-5.16 8.025-5.76 8.67-2.245 2.412-6.037 3.672-9.247 3.076-5.768-1.073-9.621-6.426-8.66-12.03.167-.974.577-2.309.912-2.967.334-.658 5.116-8.41 10.626-17.226 11.275-18.04 11.247-17.985 11.234-22.22-.009-2.826-.49-4.707-1.822-7.115-1.39-2.514-3.225-4.117-8.401-7.34l-4.64-2.89.428-.667c.236-.367.583-.893.771-1.168 1.243-1.821-1.027-4.172-2.645-2.74z"/></svg><svg viewBox="0 0 14 27" id="fb" xmlns="http://www.w3.org/2000/svg"><path d="M10.816 4.727h2.415V.52c-.417-.057-1.85-.186-3.52-.186-3.482 0-5.868 2.19-5.868 6.217v3.705H0v4.704h3.843v11.834h4.712V14.96h3.688l.586-4.704H8.554v-3.24c.001-1.36.367-2.29 2.261-2.29z"/></svg><svg viewBox="0 0 9 14" id="footer-arrow" xmlns="http://www.w3.org/2000/svg"><path d="M.539 11.763l5.094-5.095L.54 1.574 2.11.002l6.667 6.666-6.667 6.667-1.572-1.572z"/></svg><svg viewBox="0 0 26 22" id="furniture-arrow" xmlns="http://www.w3.org/2000/svg"><path fill-rule="evenodd" clip-rule="evenodd" d="M25.5 11a1.563 1.563 0 01-1.562 1.563H5.834l6.71 6.706a1.564 1.564 0 01-2.213 2.212L.956 12.106a1.563 1.563 0 010-2.212L10.331.519a1.564 1.564 0 112.213 2.212l-6.71 6.707h18.104A1.563 1.563 0 0125.5 11z"/></svg><svg viewBox="0 0 30 30" id="inst" xmlns="http://www.w3.org/2000/svg"><path fill-rule="evenodd" clip-rule="evenodd" d="M9.833 0h11A9.168 9.168 0 0130 9.167v11a9.168 9.168 0 01-9.167 9.166h-11a9.168 9.168 0 01-9.166-9.166v-11A9.168 9.168 0 019.833 0zm11 26.583a6.424 6.424 0 006.417-6.416v-11a6.424 6.424 0 00-6.417-6.417h-11a6.424 6.424 0 00-6.416 6.417v11a6.424 6.424 0 006.416 6.416h11z"/><path fill-rule="evenodd" clip-rule="evenodd" d="M8 14.667a7.334 7.334 0 1114.667 0 7.334 7.334 0 01-14.667 0zm2.75 0a4.59 4.59 0 004.584 4.583 4.59 4.59 0 004.583-4.583 4.588 4.588 0 00-4.584-4.583 4.588 4.588 0 00-4.583 4.583z"/><circle cx="23.217" cy="6.783" r=".977"/></svg><svg viewBox="0 0 33 33" id="mobile" xmlns="http://www.w3.org/2000/svg"><path d="M25.512 17.488a1.666 1.666 0 00-2.357 0l-2.657 2.657c-1.231-.367-3.53-1.2-4.986-2.657-1.457-1.456-2.29-3.755-2.657-4.986l2.657-2.657a1.664 1.664 0 000-2.357L8.845.822a1.665 1.665 0 00-2.357 0l-4.52 4.52a3.33 3.33 0 00-.976 2.391c.038 2.374.666 10.617 7.163 17.114 6.497 6.496 14.74 7.123 17.115 7.163h.047c.88 0 1.711-.347 2.341-.977l4.52-4.52a1.665 1.665 0 000-2.356l-6.666-6.669zM25.3 28.675c-2.08-.035-9.197-.593-14.788-6.187-5.61-5.61-6.154-12.751-6.187-14.79l3.342-3.341 4.31 4.31-2.155 2.155a1.666 1.666 0 00-.454 1.52c.04.191 1.019 4.736 3.785 7.503 2.767 2.767 7.312 3.745 7.504 3.785a1.651 1.651 0 001.52-.452l2.156-2.155 4.31 4.31-3.343 3.342z"/></svg><svg viewBox="0 0 10 16" id="pagination-arrow" xmlns="http://www.w3.org/2000/svg"><path d="M1.18 8.452a.935.935 0 01-.275-.66v-.474a.96.96 0 01.274-.66L7.587.261a.623.623 0 01.885 0l.885.885a.61.61 0 010 .873L3.81 7.555l5.547 5.535a.623.623 0 010 .885l-.885.873a.623.623 0 01-.885 0L1.179 8.451z"/></svg><svg viewBox="0 0 38 74" id="product-arrow" xmlns="http://www.w3.org/2000/svg"><path d="M6.083 73.958a5.209 5.209 0 01-4.01-8.541L25.406 37.5 2.906 9.531a5.208 5.208 0 01.782-7.343 5.208 5.208 0 017.604.78l25.156 31.25a5.208 5.208 0 010 6.615l-26.042 31.25a5.21 5.21 0 01-4.323 1.875z"/></svg><svg viewBox="0 0 26 26" id="search" xmlns="http://www.w3.org/2000/svg"><path d="M11.75 21.75c5.523 0 10-4.477 10-10s-4.477-10-10-10-10 4.477-10 10 4.477 10 10 10zm12.5 2.5l-5.438-5.438"/></svg><svg viewBox="0 0 21 42" id="slider-arrow" xmlns="http://www.w3.org/2000/svg"><path d="M17.834 41.417a2.917 2.917 0 002.245-4.784L7.013 21l12.6-15.663a2.917 2.917 0 00-.438-4.112 2.915 2.915 0 00-4.258.437L.829 19.162a2.917 2.917 0 000 3.705l14.584 17.5a2.918 2.918 0 002.42 1.05z"/></svg></svg>