<?xml version="1.0" encoding="utf-8"?><svg viewBox="0 0 124 130" xmlns="http://www.w3.org/2000/svg" xmlns:xlink="http://www.w3.org/1999/xlink"><style>:root>svg{display:none}:root>svg:target{display:block}</style><svg viewBox="0 0 24 28" id="cart" xmlns="http://www.w3.org/2000/svg"><path d="M17.833 9V6.542a5.834 5.834 0 00-11.666 0v5.833a.833.833 0 001.666 0v-1.708H14.5V9H7.833V6.542a4.167 4.167 0 018.334 0v5.792a.833.833 0 001.666 0v-1.667H22v15H2v-15h2.5V9H.333v16.742a1.592 1.592 0 001.592 1.591h20.15a1.592 1.592 0 001.592-1.591V9h-5.834z"/></svg><svg viewBox="0 0 124 130" id="craft" xmlns="http://www.w3.org/2000/svg"><path fill-rule="evenodd" clip-rule="evenodd" d="M73.425.351c-3.377.92-5.343 2.656-7.609 6.722-1.536 2.757-1.617 2.852-2.14 2.512-5.038-3.278-9.044-5.597-9.67-5.597-1.02-.001-2.03 1.171-1.8 2.088.091.364.28.798.418.966.14.167 2.304 1.581 4.81 3.142 2.508 1.561 4.619 2.935 4.692 3.053.073.118-13.841 25.295-30.92 55.948C-2.532 129.736-.72 126.256.526 128.07c.985 1.434 1.855 1.929 3.39 1.929.982 0 1.56-.148 2.079-.531.825-.611 70.39-100.3 70.644-101.236.368-1.356-1.242-2.706-2.527-2.12-.381.173-13.43 18.688-35.229 49.984-19.043 27.34-34.683 49.71-34.756 49.71-.072 0 .15-.487.495-1.08.344-.594 15.237-27.327 33.096-59.407 20.104-36.113 32.82-58.697 33.39-59.3 1.475-1.564 2.647-2.063 4.858-2.069 1.533-.004 2.148.118 3.137.623 3.452 1.761 4.698 5.7 2.963 9.369-.906 1.914-.918 2.062-.236 2.929.582.74 1.868.916 2.562.352 1.372-1.116 2.35-4.302 2.2-7.168-.348-6.623-6.86-11.422-13.167-9.705zm-.192 11.536c-.276.244-1.719 2.403-3.205 4.797-2.88 4.638-3.166 5.477-2.194 6.448.546.546 1.53.66 2.27.263.253-.135.903-.992 1.445-1.906.543-.914 1.104-1.633 1.248-1.597.81.198 8.984 5.537 9.94 6.493 2.932 2.932 3.835 7.374 2.282 11.234-.31.768-5.163 8.766-10.786 17.77C62.665 73.916 62.867 73.514 62.9 78.029c.017 2.206.132 2.965.666 4.381 1.428 3.79 3.671 6.398 7.016 8.156 4.085 2.147 8.62 2.197 12.944.144 3.098-1.471 4.818-3.533 10.3-12.347 5.08-8.168 5.955-9.244 8.471-10.41 2.62-1.215 5.655-1.35 8.233-.364.629.24 3.275 1.773 5.879 3.405 2.966 1.86 4.988 2.968 5.412 2.968.734 0 1.924-1.007 1.924-1.628 0-1.057-.768-1.726-5.102-4.442-2.504-1.568-5.172-3.135-5.93-3.482-1.534-.703-4.342-1.365-5.815-1.372-1.729-.008-4.808.779-6.619 1.69-3.125 1.575-4.561 3.293-9.842 11.776-2.567 4.123-5.16 8.025-5.76 8.67-2.245 2.412-6.037 3.672-9.247 3.076-5.768-1.073-9.621-6.426-8.66-12.03.167-.974.577-2.309.912-2.967.334-.658 5.116-8.41 10.626-17.226 11.275-18.04 11.247-17.985 11.234-22.22-.009-2.826-.49-4.707-1.822-7.115-1.39-2.514-3.225-4.117-8.401-7.34l-4.64-2.89.428-.667c.236-.367.583-.893.771-1.168 1.243-1.821-1.027-4.172-2.645-2.74z"/></svg><svg viewBox="0 0 26 26" id="search" xmlns="http://www.w3.org/2000/svg"><path d="M11.75 21.75c5.523 0 10-4.477 10-10s-4.477-10-10-10-10 4.477-10 10 4.477 10 10 10zm12.5 2.5l-5.438-5.438"/></svg><svg viewBox="0 0 21 42" id="slider-arrow" xmlns="http://www.w3.org/2000/svg"><path d="M17.834 41.417a2.917 2.917 0 002.245-4.784L7.013 21l12.6-15.663a2.917 2.917 0 00-.438-4.112 2.915 2.915 0 00-4.258.437L.829 19.162a2.917 2.917 0 000 3.705l14.584 17.5a2.918 2.918 0 002.42 1.05z"/></svg></svg>